<svg class="size-5" xmlns="http://www.w3.org/2000/svg" fill="#000000" viewBox="0 0 24 24">
  <path fill="#ffffff" fill-rule="evenodd" d="M3.5 3.5C2.11929 3.5 1 4.61929 1 6V18C1 19.3807 2.11929 20.5 3.5 20.5H20.5C21.8807 20.5 23 19.3807 23 18V6C23 4.61929 21.8807 3.5 20.5 3.5H3.5ZM5.79289 15.7071C6.18342 16.0976 6.81658 16.0976 7.20711 15.7071L9.67678 13.2374C10.3602 12.554 10.3602 11.446 9.67678 10.7626L7.20711 8.29289C6.81658 7.90237 6.18342 7.90237 5.79289 8.29289C5.40237 8.68342 5.40237 9.31658 5.79289 9.70711L8.08579 12L5.79289 14.2929C5.40237 14.6834 5.40237 15.3166 5.79289 15.7071ZM18 14H13.5C12.9477 14 12.5 14.4477 12.5 15C12.5 15.5523 12.9477 16 13.5 16H18C18.5523 16 19 15.5523 19 15C19 14.4477 18.5523 14 18 14Z" clip-rule="evenodd"/>
</svg>