<svg xmlns="http://www.w3.org/2000/svg" xml:space="preserve" style="fill-rule:evenodd;clip-rule:evenodd;stroke-linecap:round" viewBox="0 0 1298 1220"><path d="M1060.49 737.752v164.56c.64 21.198 3.01 29.475 15.13 45.992 12.79 17.428 51.75 27.347 63.28 85.906v87.11c0 10.14-8.23 18.37-18.37 18.37H395.039c-10.139 0-18.37-8.23-18.37-18.37v-87.11c11.525-58.559 50.488-68.478 63.276-85.906 12.119-16.517 14.495-24.794 15.131-45.992v-164.56h-34.749v-36.148h34.749v-.813h.02v-97.865c0-9.976 8.099-18.074 18.074-18.074 9.976 0 18.074 8.098 18.074 18.074v97.865h532.816v-96.983c0-9.975 8.09-18.074 18.07-18.074s18.07 8.099 18.07 18.074v96.983h.29v.813h61.49c9.98 0 18.08 8.098 18.08 18.074 0 9.975-8.1 18.074-18.08 18.074h-61.49Zm-57.82 241.759c0-9.97-8.097-18.064-18.067-18.064h-36.395c-9.97 0-18.064 8.094-18.064 18.064s8.094 18.064 18.064 18.064h36.395c9.97 0 18.067-8.094 18.067-18.064Zm-313.14 0c0-9.97-8.094-18.064-18.064-18.064h-36.395c-9.969 0-18.064 8.094-18.064 18.064s8.095 18.064 18.064 18.064h36.395c9.97 0 18.064-8.094 18.064-18.064Zm-104.378 0c0-9.97-8.095-18.064-18.064-18.064h-36.395c-9.97 0-18.064 8.094-18.064 18.064s8.094 18.064 18.064 18.064h36.395c9.969 0 18.064-8.094 18.064-18.064Zm156.457-77.016c0-9.97-8.094-18.064-18.064-18.064H687.15c-9.969 0-18.064 8.094-18.064 18.064s8.095 18.064 18.064 18.064h36.395c9.97 0 18.064-8.094 18.064-18.064Zm104.593 0c0-9.97-8.094-18.064-18.064-18.064h-36.395c-9.969 0-18.064 8.094-18.064 18.064s8.095 18.064 18.064 18.064h36.395c9.97 0 18.064-8.094 18.064-18.064Zm-209.185 0c0-9.97-8.095-18.064-18.065-18.064h-36.395c-9.969 0-18.064 8.094-18.064 18.064s8.095 18.064 18.064 18.064h36.395c9.97 0 18.065-8.094 18.065-18.064Zm267.57 156.095c0-9.97-8.095-18.06-18.064-18.06H628.855c-9.97 0-18.064 8.09-18.064 18.06 0 9.97 8.094 18.06 18.064 18.06h257.668c9.969 0 18.064-8.09 18.064-18.06Zm46.208-156.095c0-9.97-8.094-18.064-18.064-18.064h-36.395c-9.97 0-18.064 8.094-18.064 18.064s8.094 18.064 18.064 18.064h36.395c9.97 0 18.064-8.094 18.064-18.064Zm-52.507 77.016c0-9.97-8.094-18.064-18.064-18.064h-36.395c-9.97 0-18.064 8.094-18.064 18.064s8.094 18.064 18.064 18.064h36.395c9.97 0 18.064-8.094 18.064-18.064Zm1.958-241.752H616.482c37.28 37.524 87.137 60.469 141.882 60.469 54.745 0 104.602-22.945 141.882-60.469ZM793.909 979.511c0-9.97-8.094-18.064-18.064-18.064H739.45c-9.97 0-18.064 8.094-18.064 18.064s8.094 18.064 18.064 18.064h36.395c9.97 0 18.064-8.094 18.064-18.064ZM385.573 640.526v159.821c0 9.417-7.645 17.063-17.063 17.063h-17.063c-28.251 0-51.188-22.937-51.188-51.189v-91.569c0-28.252 22.937-51.189 51.188-51.189h17.063c9.418 0 17.063 7.646 17.063 17.063Z" style="fill:#fff" transform="translate(-463.938 -541.306) scale(1.54513)"/><path d="m7 15 2.47-2.47a.749.749 0 0 0 0-1.06L7 9M17.5 15H13" style="fill:none;fill-rule:nonzero;stroke:#fff;stroke-width:2px" transform="matrix(24.05706 0 0 24.05706 334.892 -33.701)"/><path d="M1.168 14.559V6c0-1.211 1.121-2.114 2.332-2.114h17c1.211 0 2.332.903 2.332 2.114v8.559h-1.664V6a.977.977 0 0 0-.276-.696c-.105-.104-.232-.19-.392-.19h-17c-.16 0-.287.086-.392.19A.977.977 0 0 0 2.832 6v8.559H1.168Z" style="fill:#fff" transform="matrix(33.74595 0 0 45.6776 302.144 -177.486)"/></svg>